# xmcd
#
# Track frame offsets:
#	150
#	11583
#	22435
#	35355
#	49080
#	60520
#	71755
#	82860
#	100043
#	112020
#	124750
#	135345
#	148775
#	158278
#	179345
#	190818
#	210428
#	226565
#	244180
#	257913
#	276028
#	291885
#
# Disc length: 4097 seconds
#
# Revision: 0
# Processed by: cddbd v1.5.2PL0 Copyright (c) Steve Scherf et al.
# Submitted via: EZCDAudioConverter 2.1.7.1
#
DISCID=2e0fff16
DTITLE=Willie Nelson - The Essential 1/2
DYEAR=2003
DGENRE=
TTITLE0=Willie Nelson - Night Life
TTITLE1=Willie Nelson - Hello Walls
TTITLE2=Willie Nelson - Crazy
TTITLE3=Willie Nelson - Funny How Time Slips Away
TTITLE4=Willie Nelson - I Never Cared For You
TTITLE5=Willie Nelson - The Party's Over
TTITLE6=Willie Nelson - Good Times
TTITLE7=Willie Nelson - Me And Paul
TTITLE8=Willie Nelson - Shotgun Willie
TTITLE9=Willie Nelson - Bloody Mary Morning
TTITLE10=Willie Nelson - Blue Eyes Crying In The Rain
TTITLE11=Waylon and Willie - Good Hearted Woman
TTITLE12=Willie Nelson - If You've Got The Money I've Got The Time
TTITLE13=Willie Nelson - Uncloudy Day
TTITLE14=Willie Nelson with Waylon Jennings - Mammas Don't Let Your Babies Gro
TTITLE14=w Up To Be Cowboys
TTITLE15=Willie Nelson - Georgia On My Mind
TTITLE16=Willie Nelson - Blue Skies
TTITLE17=Willie Nelson - All Of Me
TTITLE18=Willie Nelson with Leon Russell - Heartbreak Hotel
TTITLE19=Willie Nelson - Help Me Make It Through The Night
TTITLE20=Willie Nelson - Whiskey River [Live]
TTITLE21=Willie Nelson - Stay A Little Longer [Live]
EXTD=
EXTT0=
EXTT1=
EXTT2=
EXTT3=
EXTT4=
EXTT5=
EXTT6=
EXTT7=
EXTT8=
EXTT9=
EXTT10=
EXTT11=
EXTT12=
EXTT13=
EXTT14=
EXTT15=
EXTT16=
EXTT17=
EXTT18=
EXTT19=
EXTT20=
EXTT21=
PLAYORDER=
